<svg xmlns="http://www.w3.org/2000/svg" width="14.42" height="12.98" viewBox="0 0 14.42 12.98">
  <defs>
    <style>
      .cls-1 {
        fill: #eefaff;
      }
    </style>
  </defs>
  <title>icon_shangwei</title>
  <g id="图层_2" data-name="图层 2">
    <g id="图层_1-2" data-name="图层 1">
      <g>
        <path class="cls-1" d="M12.58,9.93H1.83A1.83,1.83,0,0,1,0,8.1V1.83A1.83,1.83,0,0,1,1.83,0H12.58a1.84,1.84,0,0,1,1.84,1.83V8.1A1.84,1.84,0,0,1,12.58,9.93ZM1.83.42A1.41,1.41,0,0,0,.42,1.83V8.1A1.41,1.41,0,0,0,1.83,9.51H12.58A1.42,1.42,0,0,0,14,8.1V1.83A1.42,1.42,0,0,0,12.58.42Z"/>
        <path class="cls-1" d="M12.84,8H1.58a.41.41,0,0,1-.41-.41v-6a.41.41,0,0,1,.41-.41H12.84a.42.42,0,0,1,.41.41v6A.41.41,0,0,1,12.84,8Zm0-6.42H1.58v6H12.83Z"/>
        <path class="cls-1" d="M9.82,13H4.6a.85.85,0,0,1-.84-.84V11.9a.84.84,0,0,1,.84-.84H9.82a.84.84,0,0,1,.84.84v.24A.85.85,0,0,1,9.82,13ZM4.6,11.48a.42.42,0,0,0-.42.42v.24a.42.42,0,0,0,.42.42H9.82a.42.42,0,0,0,.42-.42V11.9a.42.42,0,0,0-.42-.42Z"/>
        <path class="cls-1" d="M7.21,11.48H6.29a.22.22,0,0,1-.21-.21V9.72a.22.22,0,0,1,.21-.21h.92a.22.22,0,0,1,.21.21v1.55A.22.22,0,0,1,7.21,11.48Zm-.71-.42H7V9.93H6.5Z"/>
        <path class="cls-1" d="M8.13,11.48H7.21A.21.21,0,0,1,7,11.27V9.72a.21.21,0,0,1,.21-.21h.92a.22.22,0,0,1,.21.21v1.55A.22.22,0,0,1,8.13,11.48Zm-.71-.42h.5V9.93h-.5Z"/>
      </g>
    </g>
  </g>
</svg>
