<svg xmlns="http://www.w3.org/2000/svg" width="13.05" height="13.02" viewBox="0 0 13.05 13.02">
  <defs>
    <style>
      .cls-1 {
        fill: #eefaff;
      }
    </style>
  </defs>
  <title>icon_diaoke</title>
  <g id="图层_2" data-name="图层 2">
    <g id="图层_1-2" data-name="图层 1">
      <g>
        <path class="cls-1" d="M12.61,4.16,13,3.49a.59.59,0,0,0,.07-.25V2.5A.48.48,0,0,0,12.58,2H10.85a.49.49,0,0,0-.48.48V4H7.75V.48A.48.48,0,0,0,7.28,0H5.66a.48.48,0,0,0-.47.48V3.93H2.68V2.46A.48.48,0,0,0,2.21,2H.48A.48.48,0,0,0,0,2.46V3.2a.66.66,0,0,0,.07.26l.37.66v6.4l-.37.7a.77.77,0,0,0-.07.29v1A.49.49,0,0,0,.48,13H12.54a.49.49,0,0,0,.48-.48v-1a.79.79,0,0,0-.08-.29l-.36-.7V4.19a0,0,0,0,1,0,0Zm-5.29,1H7.24a.36.36,0,0,0-.36.37v.4H6v-.4a.37.37,0,0,0-.36-.37l0,0V.51H7.32V5.15ZM1,4.23a.7.7,0,0,0-.08-.3L.51,3.24l0-.74H2.17V7.28a.13.13,0,0,1,0,.11L1,9.56ZM12.5,12.5H.51v-1L2.57,7.61a.57.57,0,0,0,.08-.37V4.41H5.11v.74a.49.49,0,0,0,.41.48V6a.37.37,0,0,0,.36.37H7A.37.37,0,0,0,7.35,6v-.4a.51.51,0,0,0,.41-.48v-.7h2.5V7.28a1.61,1.61,0,0,0,.07.37l2.1,3.86v1ZM10.89,7.39a.13.13,0,0,1,0-.11V2.5h1.51l.14,0V3.2l-.36.66a.84.84,0,0,0-.08.3V9.52Z"/>
        <path class="cls-1" d="M5.74,8.09a.25.25,0,0,0-.26-.26H4.12a.26.26,0,1,0,0,.52H5.48a.25.25,0,0,0,.26-.26Zm.73.33a.25.25,0,0,0,.26-.26V6.84a.25.25,0,0,0-.26-.26.26.26,0,0,0-.26.26V8.16a.26.26,0,0,0,.26.26Zm2.61-.59H7.72a.26.26,0,0,0,0,.52H9.08a.26.26,0,1,0,0-.52ZM6.47,9.16a.26.26,0,0,0-.26.25v1.33a.26.26,0,0,0,.26.26.25.25,0,0,0,.26-.26V9.41a.25.25,0,0,0-.26-.25Zm-.92-.41-1,1a.25.25,0,0,0,0,.37.27.27,0,0,0,.36,0l1-1a.26.26,0,1,0-.37-.37Zm2.1,0a.26.26,0,1,0-.37.37l1,.95a.25.25,0,0,0,.18.08.3.3,0,0,0,.19-.08.24.24,0,0,0,0-.36Z"/>
      </g>
    </g>
  </g>
</svg>
