<svg xmlns="http://www.w3.org/2000/svg" width="13.98" height="10.15" viewBox="0 0 13.98 10.15">
  <defs>
    <style>
      .cls-1 {
        fill: #eefaff;
      }
    </style>
  </defs>
  <title>icon_jianding_1</title>
  <g id="图层_2" data-name="图层 2">
    <g id="图层_1-2" data-name="图层 1">
      <g>
        <path class="cls-1" d="M12.11,10.15H1.86A1.86,1.86,0,0,1,0,8.29V1.86A1.87,1.87,0,0,1,1.86,0H12.11A1.87,1.87,0,0,1,14,1.86V8.29A1.87,1.87,0,0,1,12.11,10.15ZM1.86.39A1.47,1.47,0,0,0,.39,1.86V8.29A1.47,1.47,0,0,0,1.86,9.76H12.11a1.47,1.47,0,0,0,1.48-1.47V1.86A1.47,1.47,0,0,0,12.11.39Z"/>
        <path class="cls-1" d="M8.36,10.15H2.51a.2.2,0,0,1-.2-.19V8.86a1.44,1.44,0,0,1,.34-.93l.55-.8V4.41a.81.81,0,0,1,1.61,0V6.7l2.74.68a1.47,1.47,0,0,1,1,1.36V10A.2.2,0,0,1,8.36,10.15ZM2.7,9.76H8.17v-1a1.07,1.07,0,0,0-.73-1l-2.87-.7a.19.19,0,0,1-.15-.19V4.41A.41.41,0,0,0,4,4a.41.41,0,0,0-.41.41V7.19a.17.17,0,0,1,0,.11L3,8.17a1.06,1.06,0,0,0-.26.69Z"/>
        <path class="cls-1" d="M12.39,8.11H8a.2.2,0,0,1-.15-.06,1,1,0,0,0-.43-.3l-2.87-.7a.19.19,0,0,1-.15-.19V4.41A.41.41,0,0,0,4,4a.41.41,0,0,0-.41.41V7.19a.17.17,0,0,1,0,.11L3.06,8a.21.21,0,0,1-.16.08H1.58a.38.38,0,0,1-.38-.38V1.53a.38.38,0,0,1,.38-.38H12.39a.39.39,0,0,1,.39.38v6.2A.39.39,0,0,1,12.39,8.11ZM1.58,1.54V7.73h1.2l.41-.6V4.41a.81.81,0,0,1,1.61,0V6.7l2.74.68a1.43,1.43,0,0,1,.55.35h4.29V1.54Z"/>
      </g>
    </g>
  </g>
</svg>
