<svg xmlns="http://www.w3.org/2000/svg" width="15.66" height="10.33" viewBox="0 0 15.66 10.33">
  <defs>
    <style>
      .cls-1 {
        fill: #eefaff;
      }
    </style>
  </defs>
  <title>icon_shipin</title>
  <g id="图层_2" data-name="图层 2">
    <g id="图层_1-2" data-name="图层 1">
      <g>
        <path class="cls-1" d="M14.3,10.33H1.36A1.36,1.36,0,0,1,0,9V1.36A1.36,1.36,0,0,1,1.36,0H14.3a1.36,1.36,0,0,1,1.36,1.36V9A1.36,1.36,0,0,1,14.3,10.33ZM1.36.43a.93.93,0,0,0-.93.93V9a.93.93,0,0,0,.93.93H14.3A.93.93,0,0,0,15.22,9V1.36A.93.93,0,0,0,14.3.43Z"/>
        <path class="cls-1" d="M3.47,6.47V.55A.56.56,0,0,0,2.88,0H1.36A1.29,1.29,0,0,0,0,1.22v2a.61.61,0,0,0,0,.13H0V7H0a.61.61,0,0,0,0,.13v2a1.29,1.29,0,0,0,1.35,1.21H2.88a.58.58,0,0,0,.59-.54v-3a.85.85,0,0,0,0-.16ZM.42,6.58V3.75H3.06V6.57H.42Zm0-3.36v-2a.88.88,0,0,1,.94-.8H2.88c.1,0,.18.06.18.13v2.8H.6C.5,3.35.42,3.29.42,3.22ZM3.06,9.78c0,.06-.08.13-.18.13H1.36a.88.88,0,0,1-.94-.8v-2C.42,7,.5,7,.6,7H3.06Z"/>
        <path class="cls-1" d="M12.2,3.86V9.78a.55.55,0,0,0,.58.54H14.3a1.28,1.28,0,0,0,1.35-1.21v-2a.5.5,0,0,0,0-.13h0V3.35h0a.79.79,0,0,0,0-.13v-2A1.28,1.28,0,0,0,14.3,0H12.78a.57.57,0,0,0-.58.54v3a.81.81,0,0,0,0,.16S12.2,3.78,12.2,3.86Zm3-.11V6.58H12.6V3.76h2.64Zm0,3.36v2a.88.88,0,0,1-.94.8H12.78c-.1,0-.18-.06-.18-.13V7h2.47C15.16,7,15.24,7,15.24,7.11ZM12.6.55c0-.06.08-.13.18-.13H14.3a.88.88,0,0,1,.94.8v2c0,.07-.08.13-.17.13H12.6Z"/>
        <path class="cls-1" d="M6.63,7.5a1,1,0,0,1-.44-.11.93.93,0,0,1-.45-.79V3.73A.91.91,0,0,1,6.19,3,.92.92,0,0,1,7.1,3L9.5,4.41a.89.89,0,0,1,0,1.52L7.1,7.37A.9.9,0,0,1,6.63,7.5Zm0-4.23a.46.46,0,0,0-.23.06.46.46,0,0,0-.24.4V6.6A.45.45,0,0,0,6.88,7L9.27,5.56a.46.46,0,0,0,0-.78L6.87,3.33A.46.46,0,0,0,6.64,3.27Z"/>
      </g>
    </g>
  </g>
</svg>
