<svg xmlns="http://www.w3.org/2000/svg" width="15.26" height="10.22" viewBox="0 0 15.26 10.22">
  <defs>
    <style>
      .cls-1 {
        fill: #eefaff;
      }
    </style>
  </defs>
  <title>icon_tiebiao</title>
  <g id="图层_2" data-name="图层 2">
    <g id="图层_1-2" data-name="图层 1">
      <path class="cls-1" d="M4.14,7.07H5.26a.29.29,0,0,0,.3-.3V5.6H6L7.41,7a.32.32,0,0,0,.22.09H8.84V8.28h-1a.66.66,0,0,0-.65.64v.65a.67.67,0,0,0,.65.65h6a.67.67,0,0,0,.65-.65V8.92a.66.66,0,0,0-.65-.64H13V7.07h.69l1-.73a1.47,1.47,0,0,0,.56-1.17V2A1.64,1.64,0,0,0,14.7.78l-1-.74h-.05s-.08,0-.13,0h-6a.1.1,0,0,0-.09.09L6,1.47H5.56V.52a.29.29,0,0,0-.3-.3H1.77a.28.28,0,0,0-.3.3v.64l-1,.74A1.11,1.11,0,0,0,0,2.8V4.22a1.13,1.13,0,0,0,.47.91l1,.78v.86a.29.29,0,0,0,.3.3h.85M1.47,5.13.82,4.66A.54.54,0,0,1,.6,4.22V2.8a.54.54,0,0,1,.22-.43l.65-.47ZM3.05,7.07h2.3M5,6.47H2.07V.78H5ZM7.33,6l-1-1L6.29,5s-.08,0-.13,0h-.6V2.07h.6a.16.16,0,0,0,.13,0,.1.1,0,0,0,.09-.09l1-.95Zm6.59,2.93v.65a0,0,0,0,1,0,0l-6.08,0,0-.69ZM9.44,8.28V7.07h3V8.28Zm3.75-1.81H7.93V.6h5.26Zm1.47-1.38a.92.92,0,0,1-.35.69l-.52.38V.91l.52.38a.84.84,0,0,1,.35.69Z"/>
    </g>
  </g>
</svg>
