<svg xmlns="http://www.w3.org/2000/svg" width="16.11" height="12.24" viewBox="0 0 16.11 12.24">
  <defs>
    <style>
      .cls-1 {
        fill: #eefaff;
      }
    </style>
  </defs>
  <title>icon_biancheng</title>
  <g id="图层_2" data-name="图层 2">
    <g id="图层_1-2" data-name="图层 1">
      <g>
        <path class="cls-1" d="M13.62,0H2.34A.63.63,0,0,0,1.7.64V8.13a.63.63,0,0,0,.64.64H13.58a.64.64,0,0,0,.64-.64V.64a.59.59,0,0,0-.6-.64Zm.14,8.14h0a.15.15,0,0,1-.14.14H2.34a.15.15,0,0,1-.14-.14h0V.64A.15.15,0,0,1,2.34.5H13.58a.15.15,0,0,1,.14.14l0,7"/>
        <path class="cls-1" d="M3.66,7h8.59a.6.6,0,0,0,.59-.6V1.81a.6.6,0,0,0-.59-.6H3.66a.58.58,0,0,0-.62.6V6.4a.6.6,0,0,0,.62.6ZM3.5,1.81a.14.14,0,0,1,.13-.13h8.58a.13.13,0,0,1,.13.13V6.4a.13.13,0,0,1-.13.13H3.66a.14.14,0,0,1-.13-.13V1.81Z"/>
        <path class="cls-1" d="M15.89,11.26H.22a.22.22,0,0,1-.2-.12.24.24,0,0,1,0-.23L2,8.33l.36.25L.66,10.82H15.43L13.64,8.64,14,8.36l2.08,2.54a.21.21,0,0,1,0,.24A.22.22,0,0,1,15.89,11.26Z"/>
        <path class="cls-1" d="M15.89,12.24H.22A.22.22,0,0,1,0,12V11a.22.22,0,0,1,.22-.22H15.89a.22.22,0,0,1,.22.22v1A.22.22,0,0,1,15.89,12.24ZM.44,11.79H15.67v-.53H.44Z"/>
        <path class="cls-1" d="M6.07,5.52a.2.2,0,0,1-.16-.07L4.72,4.26a.21.21,0,0,1,0-.31l1.19-1.2a.23.23,0,0,1,.31,0,.22.22,0,0,1,0,.32l-1,1,1,1a.21.21,0,0,1,0,.31A.19.19,0,0,1,6.07,5.52Z"/>
        <path class="cls-1" d="M9.78,5.52a.21.21,0,0,1-.16-.07.23.23,0,0,1,0-.31l1-1-1-1a.23.23,0,0,1,.32-.32L11.13,4a.21.21,0,0,1,0,.31L9.94,5.45A.21.21,0,0,1,9.78,5.52Z"/>
        <path class="cls-1" d="M7.47,5.52l-.09,0a.22.22,0,0,1-.1-.3L8.44,2.81a.22.22,0,1,1,.4.2L7.67,5.39A.22.22,0,0,1,7.47,5.52Z"/>
      </g>
    </g>
  </g>
</svg>
