<svg xmlns="http://www.w3.org/2000/svg" width="14.41" height="14.62" viewBox="0 0 14.41 14.62">
  <defs>
    <style>
      .cls-1 {
        fill: #eefaff;
      }
    </style>
  </defs>
  <title>icon_hongwai</title>
  <g id="图层_2" data-name="图层 2">
    <g id="图层_1-2" data-name="图层 1">
      <g>
        <path class="cls-1" d="M12.26,6.69H2.19a2.19,2.19,0,1,0,0,4.37h3l-.56,1.63H4.49a1,1,0,0,0,0,1.93H9.92a1,1,0,0,0,0-1.93H9.87L9.3,11.06h2.92a2.16,2.16,0,0,0,2.19-2.19,2.13,2.13,0,0,0-2.15-2.18Zm-1.95,6.92A.35.35,0,0,1,10,14H4.53a.35.35,0,0,1-.35-.35.33.33,0,0,1,.35-.35H10a.37.37,0,0,1,.35.35Zm-1-1h-4L5.84,11H8.77Zm2.95-2.2H2.19a1.58,1.58,0,1,1,0-3.15H12.26a1.58,1.58,0,1,1,0,3.15Z"/>
        <path class="cls-1" d="M3.31,7.82a1.06,1.06,0,0,0,0,2.11,1.06,1.06,0,0,0,0-2.11Zm0,1.49a.44.44,0,0,1-.44-.44.41.41,0,0,1,.44-.43.44.44,0,0,1,0,.87Zm8.56-1.49H7.23a1.06,1.06,0,0,0,0,2.11h4.64a1.07,1.07,0,0,0,1.05-1.06,1,1,0,0,0-1.05-1Zm0,1.49H7.23a.44.44,0,0,1-.44-.44.41.41,0,0,1,.44-.43h4.64a.43.43,0,0,1,.44.43.41.41,0,0,1-.44.44ZM2.6,2.67a.3.3,0,0,0,.22-.09,6.06,6.06,0,0,1,4.51-2,6,6,0,0,1,4.46,2,.31.31,0,1,0,.44-.44A6.81,6.81,0,0,0,7.28,0,6.66,6.66,0,0,0,2.34,2.19a.33.33,0,0,0,0,.44.68.68,0,0,0,.26,0ZM9.87,4.73a.32.32,0,0,0,.43,0,.32.32,0,0,0,0-.44,4,4,0,0,0-3-1.4A3.94,3.94,0,0,0,4.26,4.42a.35.35,0,0,0,0,.44.27.27,0,0,0,.17,0,.38.38,0,0,0,.27-.13A3.28,3.28,0,0,1,7.33,3.5,3.49,3.49,0,0,1,9.87,4.73Z"/>
        <path class="cls-1" d="M7.33,4.38a2.38,2.38,0,0,0-2.1,1.18A.34.34,0,0,0,5.31,6c.05,0,.09,0,.18,0a.29.29,0,0,0,.26-.13A1.76,1.76,0,0,1,7.33,5a1.91,1.91,0,0,1,1.53.79.34.34,0,0,0,.44.09.35.35,0,0,0,.09-.44A2.47,2.47,0,0,0,7.33,4.38Zm3.41-.62a.33.33,0,0,0,.44.05.34.34,0,0,0,0-.44,5.21,5.21,0,0,0-7.79,0,.29.29,0,0,0,0,.44.34.34,0,0,0,.21.09.34.34,0,0,0,.22-.09A4.73,4.73,0,0,1,7.37,2.28a4.23,4.23,0,0,1,3.37,1.48Z"/>
      </g>
    </g>
  </g>
</svg>
