<svg xmlns="http://www.w3.org/2000/svg" width="14.34" height="11.32" viewBox="0 0 14.34 11.32">
  <defs>
    <style>
      .cls-1 {
        fill: #eefaff;
      }
    </style>
  </defs>
  <title>icon_wucha</title>
  <g id="图层_2" data-name="图层 2">
    <g id="图层_1-2" data-name="图层 1">
      <g>
        <path class="cls-1" d="M13.73,0H.65C.29,0,0,.14,0,.58V10.74a.59.59,0,0,0,.65.58h13a.68.68,0,0,0,.65-.65V.58c0-.44-.25-.58-.61-.58ZM5.31,8.4v.39a.25.25,0,0,0,.25.26.24.24,0,0,0,.25-.26V8.4H6.93v2.41H4.16V8.4Zm2.13,0H8.59v.39a.25.25,0,0,0,.26.26.28.28,0,0,0,.25-.26V8.4h1.08v2.41H7.44ZM10,7.89H.5V.65A.17.17,0,0,1,.65.5H13.73a.16.16,0,0,1,.14.15h0V7.89H10ZM.5,10.67V8.4H1.86v.39a.26.26,0,1,0,.51,0V8.4H3.66v2.41h-3a.16.16,0,0,1-.15-.14Zm13.37,0a.15.15,0,0,1-.14.14h-3V8.4h1.37v.39a.25.25,0,0,0,.25.26.24.24,0,0,0,.25-.26V8.4h1.31Z"/>
        <path class="cls-1" d="M3.33,1.47H1.85a.25.25,0,0,0-.25.25V6.44a.25.25,0,0,0,.25.25H3.33a.24.24,0,0,0,.25-.25V1.72a.24.24,0,0,0-.25-.25ZM3.08,6.18h-1V2h1Zm3.28.51a.25.25,0,0,0,.25-.25V1.72a.25.25,0,0,0-.25-.25H4.88a.25.25,0,0,0-.25.25V6.44a.25.25,0,0,0,.25.25ZM5.13,2h1v4.2h-1Zm4.29-.51H7.94a.25.25,0,0,0-.25.25V6.44a.25.25,0,0,0,.25.25H9.42a.24.24,0,0,0,.25-.25V1.72a.24.24,0,0,0-.25-.25ZM9.17,6.18h-1V2h1Zm3.39-4.71H11.08a.24.24,0,0,0-.25.25V6.44a.24.24,0,0,0,.25.25h1.48a.25.25,0,0,0,.25-.25V1.72a.25.25,0,0,0-.25-.25ZM12.3,6.18h-1V2h1Z"/>
      </g>
    </g>
  </g>
</svg>
