<svg xmlns="http://www.w3.org/2000/svg" xmlns:xlink="http://www.w3.org/1999/xlink" width="17.67" height="17.11" viewBox="0 0 17.67 17.11">
  <defs>
    <style>
      .cls-1 {
        fill: url(#未命名的渐变_9);
      }

      .cls-2 {
        fill: url(#未命名的渐变_9-2);
      }

      .cls-3 {
        fill: url(#未命名的渐变_9-3);
      }

      .cls-4 {
        fill: url(#未命名的渐变_9-4);
      }

      .cls-5 {
        fill: url(#未命名的渐变_9-5);
      }

      .cls-6 {
        fill: url(#未命名的渐变_9-6);
      }
    </style>
    <linearGradient id="未命名的渐变_9" data-name="未命名的渐变 9" x1="14.11" y1="1.6" x2="18.47" y2="5.96" gradientUnits="userSpaceOnUse">
      <stop offset="0" stop-color="#eefaff"/>
      <stop offset="0.15" stop-color="#eefaff" stop-opacity="0.95"/>
      <stop offset="0.43" stop-color="#eefaff" stop-opacity="0.82"/>
      <stop offset="0.8" stop-color="#eefaff" stop-opacity="0.62"/>
      <stop offset="1" stop-color="#eefaff" stop-opacity="0.5"/>
    </linearGradient>
    <linearGradient id="未命名的渐变_9-2" x1="13.15" y1="2.49" x2="16.78" y2="6.13" xlink:href="#未命名的渐变_9"/>
    <linearGradient id="未命名的渐变_9-3" x1="0.36" y1="2.76" x2="2.41" y2="4.81" xlink:href="#未命名的渐变_9"/>
    <linearGradient id="未命名的渐变_9-4" x1="1.83" y1="3.44" x2="3.57" y2="5.18" xlink:href="#未命名的渐变_9"/>
    <linearGradient id="未命名的渐变_9-5" x1="3.15" y1="4.95" x2="14.67" y2="16.48" xlink:href="#未命名的渐变_9"/>
    <linearGradient id="未命名的渐变_9-6" x1="7.53" y1="14.39" x2="9.88" y2="16.74" xlink:href="#未命名的渐变_9"/>
  </defs>
  <title>icon_slected_guzhang</title>
  <g id="图层_2" data-name="图层 2">
    <g id="图层_1-2" data-name="图层 1">
      <g>
        <path class="cls-1" d="M17.44,6.9a.22.22,0,0,1-.22-.23A8.36,8.36,0,0,0,15,1.05a.22.22,0,0,1,0-.32.23.23,0,0,1,.32,0,8.74,8.74,0,0,1,2.37,5.93.24.24,0,0,1-.22.23Z"/>
        <path class="cls-2" d="M15.91,6.91a.22.22,0,0,1-.22-.23A6.76,6.76,0,0,0,13.85,2.1a.23.23,0,0,1,0-.32.22.22,0,0,1,.32,0,7.19,7.19,0,0,1,2,4.89.23.23,0,0,1-.22.23Z"/>
        <path class="cls-3" d="M.23,6.9h0A.24.24,0,0,1,0,6.67,8.78,8.78,0,0,1,2.37.74a.23.23,0,0,1,.32,0,.22.22,0,0,1,0,.32A8.36,8.36,0,0,0,.45,6.67.22.22,0,0,1,.23,6.9Z"/>
        <path class="cls-4" d="M1.76,6.91h0a.23.23,0,0,1-.22-.23,7.19,7.19,0,0,1,2-4.89.22.22,0,0,1,.32,0,.23.23,0,0,1,0,.32A6.81,6.81,0,0,0,2,6.68.22.22,0,0,1,1.76,6.91Z"/>
        <path class="cls-5" d="M16.46,14.6a.49.49,0,0,0,.37-.46v-.06a.48.48,0,0,0-.37-.44l-.15,0-.53-.11c-1.25-.25-1.39-1.67-1.39-2.27V7.08A5.64,5.64,0,0,0,9.75,1.46V.84a.84.84,0,0,0-1.68,0v.63A5.63,5.63,0,0,0,3.43,7.08V11.2c0,.6-.14,2-1.39,2.27l-.68.17a.48.48,0,0,0-.37.44v.06a.47.47,0,0,0,.37.45l.11,0H16.35A.33.33,0,0,0,16.46,14.6Z"/>
        <path class="cls-6" d="M6.75,15.17a2,2,0,0,0,3.91,0"/>
      </g>
    </g>
  </g>
</svg>
