<svg xmlns="http://www.w3.org/2000/svg" width="14.48" height="10.01" viewBox="0 0 14.48 10.01">
  <defs>
    <style>
      .cls-1 {
        fill: #eefaff;
      }
    </style>
  </defs>
  <title>icon_jiandingcang_1</title>
  <g id="图层_2" data-name="图层 2">
    <g id="图层_1-2" data-name="图层 1">
      <path class="cls-1" d="M13.19,10a1.28,1.28,0,0,0,1.29-1.28V4.51h0a2.23,2.23,0,0,0-.29-1.06L12.54.9A1.62,1.62,0,0,0,11.06,0H3.41A1.6,1.6,0,0,0,1.93.9L.29,3.45A2.61,2.61,0,0,0,0,4.51V8.73A1.28,1.28,0,0,0,1.29,10h11.9ZM7.25,7.7a.24.24,0,0,0,.2-.23.22.22,0,0,0-.22-.23H.42V5.35H1v.7a.22.22,0,0,0,.22.23.23.23,0,0,0,.23-.23v-.7H2.87v.7a.22.22,0,0,0,.22.23.23.23,0,0,0,.23-.23v-.7H4.73v.7A.23.23,0,0,0,5,6.28a.22.22,0,0,0,.22-.23v-.7H6.6v.7a.23.23,0,0,0,.23.23.22.22,0,0,0,.22-.23v-.7h.2a.23.23,0,0,0,.2-.22.23.23,0,0,0-.22-.23H.42V4.51a1.51,1.51,0,0,1,.22-.84L2.29,1.16A1.21,1.21,0,0,1,3.38.48H11a1.18,1.18,0,0,1,1.1.68l1.64,2.51a2,2,0,0,1,.22.87v.35H8.82a.22.22,0,0,0-.22.23v.45a.22.22,0,0,0,.22.23.23.23,0,0,0,.23-.23V5.35H14V6.47H8.82a.22.22,0,0,0-.22.23v.45a.21.21,0,0,0,.22.22.22.22,0,0,0,.23-.22V6.92H14V8H8.82a.21.21,0,0,0-.22.22v.45a.22.22,0,0,0,.22.23.23.23,0,0,0,.23-.23V8.47H14v.29a.77.77,0,0,1-.8.8H1.26a.82.82,0,0,1-.84-.83v-1H1v.7a.22.22,0,0,0,.22.23.23.23,0,0,0,.23-.23V7.7H2.87v.7a.22.22,0,0,0,.22.23.23.23,0,0,0,.23-.23V7.7H4.73v.7A.23.23,0,0,0,5,8.63a.22.22,0,0,0,.22-.23V7.7H6.6v.7a.23.23,0,0,0,.23.23.22.22,0,0,0,.22-.23V7.7h.19"/>
    </g>
  </g>
</svg>
