<svg xmlns="http://www.w3.org/2000/svg" width="14.54" height="12.54" viewBox="0 0 14.54 12.54">
  <defs>
    <style>
      .cls-1 {
        fill: #eefaff;
      }
    </style>
  </defs>
  <title>icon_yasuo</title>
  <g id="图层_2" data-name="图层 2">
    <g id="图层_1-2" data-name="图层 1">
      <g>
        <path class="cls-1" d="M8.39,3.27H6.09a.29.29,0,1,0,0,.57h2.3a.29.29,0,1,0,0-.57Zm0,1.06H6.09a.29.29,0,0,0,0,.58h2.3a.29.29,0,0,0,0-.58Z"/>
        <path class="cls-1" d="M8.58,1.14V.74A.74.74,0,0,0,7.84,0H6.21a.74.74,0,0,0-.74.74v.69H2.94A2.93,2.93,0,0,0,0,4.37v3a3,3,0,0,0,2.7,2.94v.49a.47.47,0,0,0-.37.49V12a.53.53,0,0,0,.53.53H5.27A.54.54,0,0,0,5.8,12v-.69a.55.55,0,0,0-.41-.53v-.45h3.8v.49a.53.53,0,0,0-.37.49V12a.54.54,0,0,0,.53.53h2.41a.53.53,0,0,0,.53-.53v-.69a.56.56,0,0,0-.4-.53v-.45A3,3,0,0,0,14.54,7.4v-3a3,3,0,0,0-3-2.9H8.58V.63M9.72,10.79V9.24a.78.78,0,0,1,.78-.78.75.75,0,0,1,.77.78v1.55Zm0-8.74h1.51V8.17a1.26,1.26,0,0,0-.77-.24,1.38,1.38,0,0,0-.78.24V2.05ZM6.09.78A.17.17,0,0,1,6.25.61H7.88a.18.18,0,0,1,.17.17v.69h-2ZM4.78,10.34v.45H3.27V9.24A.77.77,0,0,1,4,8.46a.72.72,0,0,1,.74.78v1.1Zm0-2.21A1.29,1.29,0,0,0,4,7.89a1.35,1.35,0,0,0-.77.24V2H4.78ZM.57,7.44v-3A2.42,2.42,0,0,1,2.7,2.05V9.77A2.39,2.39,0,0,1,.57,7.44ZM5.19,12H2.9v-.61H5.19Zm.16-2.16V2.05h3.8V9.81ZM11.64,12H9.31v-.61h2.33Zm2.25-4.53A2.33,2.33,0,0,1,11.8,9.77V2.05a2.34,2.34,0,0,1,2.09,2.32Z"/>
      </g>
    </g>
  </g>
</svg>
