<svg xmlns="http://www.w3.org/2000/svg" xmlns:xlink="http://www.w3.org/1999/xlink" width="16.92" height="18" viewBox="0 0 16.92 18">
  <defs>
    <style>
      .cls-1 {
        fill: url(#未命名的渐变_9);
      }

      .cls-2 {
        fill: url(#未命名的渐变_9-2);
      }
    </style>
    <linearGradient id="未命名的渐变_9" data-name="未命名的渐变 9" x1="2.6" y1="8.51" x2="14.51" y2="20.42" gradientUnits="userSpaceOnUse">
      <stop offset="0" stop-color="#eefaff"/>
      <stop offset="0.15" stop-color="#eefaff" stop-opacity="0.95"/>
      <stop offset="0.43" stop-color="#eefaff" stop-opacity="0.82"/>
      <stop offset="0.8" stop-color="#eefaff" stop-opacity="0.62"/>
      <stop offset="1" stop-color="#eefaff" stop-opacity="0.5"/>
    </linearGradient>
    <linearGradient id="未命名的渐变_9-2" x1="5.3" y1="1.79" x2="11.92" y2="8.41" xlink:href="#未命名的渐变_9"/>
  </defs>
  <title>icon_slected_caozuozhong</title>
  <g id="图层_2" data-name="图层 2">
    <g id="图层_1-2" data-name="图层 1">
      <g>
        <path class="cls-1" d="M16.87,17a1.76,1.76,0,0,0-1-1.42c-.35-.17-.71-.33-1.07-.48a16.8,16.8,0,0,0-2.09-.76,3.5,3.5,0,0,1-1.08-.48,1.55,1.55,0,0,1-.76-1.28,1.39,1.39,0,0,1,.66-1.41,1.21,1.21,0,0,0,.54-.66c.1-.26.18-.52.28-.77a.22.22,0,0,1,.1-.13A1,1,0,0,0,13,9.11,1.81,1.81,0,0,0,13.2,8,.87.87,0,0,0,13,7.47a.25.25,0,0,1-.09-.21c0-.19,0-.38,0-.56H4.41c0,.21,0,.41,0,.61a.26.26,0,0,1,0,.15,1.46,1.46,0,0,0-.26.69,1.39,1.39,0,0,0,.54,1.33A.77.77,0,0,1,5,9.93a1.21,1.21,0,0,0,0,.18,2,2,0,0,0,.71,1.06,3.33,3.33,0,0,1,.28.25.75.75,0,0,1,.26.45,6.65,6.65,0,0,1,.06.77,1.06,1.06,0,0,1-.3.79,2.93,2.93,0,0,1-1.25.83c-.74.27-1.49.49-2.24.74-.46.16-.92.32-1.36.51A1.66,1.66,0,0,0,.1,17v0c0,.19-.07.39-.1.58V18H7.66A12,12,0,0,1,8.14,16a.19.19,0,0,0-.06-.23,2.37,2.37,0,0,1-.29-.34.37.37,0,0,1,0-.39,1.41,1.41,0,0,1,.53-.58.23.23,0,0,1,.11,0H9a.85.85,0,0,1,.66.3c.37.37.39.68,0,1a.33.33,0,0,0-.1.38c.14.63.27,1.27.4,1.91h7v-.73c0-.1,0-.21-.05-.31Z"/>
        <path class="cls-2" d="M14,6.17h.09c.09,0,.12,0,.11-.11s0-.44-.09-.66a.85.85,0,0,0-.7-.7l-.07,0a.23.23,0,0,1-.2-.24A4,4,0,0,0,13,3.59a1.83,1.83,0,0,0-.08-.25h0A3.76,3.76,0,0,0,10.3.88c-.09,0-.13,0-.16.08a2.23,2.23,0,0,0-.16.43c-.18.75-.35,1.5-.53,2.25a.29.29,0,0,1,0,.09.16.16,0,0,1,0-.09v-3a2.35,2.35,0,0,0,0-.26A.46.46,0,0,0,9,0H8.26a.42.42,0,0,0-.39.27.84.84,0,0,0,0,.31c0,1,0,2,0,3v.13a.33.33,0,0,1-.06-.14c-.15-.64-.29-1.29-.45-1.93A5.53,5.53,0,0,0,7.09,1C7.06.9,7,.85,6.92.88A3.88,3.88,0,0,0,4.08,4.4c0,.21,0,.23-.23.29l-.15,0a.76.76,0,0,0-.52.47,2.55,2.55,0,0,0-.16,1H14Z"/>
      </g>
    </g>
  </g>
</svg>
