<svg xmlns="http://www.w3.org/2000/svg" width="12.89" height="12.89" viewBox="0 0 12.89 12.89">
  <defs>
    <style>
      .cls-1 {
        fill: #eefaff;
      }
    </style>
  </defs>
  <title>icon_waiguan</title>
  <g id="图层_2" data-name="图层 2">
    <g id="图层_1-2" data-name="图层 1">
      <g>
        <path class="cls-1" d="M11.72,12.89H1.17A1.17,1.17,0,0,1,0,11.72V1.17A1.17,1.17,0,0,1,1.17,0H11.72a1.17,1.17,0,0,1,1.17,1.17V11.72A1.18,1.18,0,0,1,11.72,12.89ZM1.17.46a.7.7,0,0,0-.71.71V11.72a.7.7,0,0,0,.71.71H11.72a.7.7,0,0,0,.71-.71V1.17a.7.7,0,0,0-.71-.71Z"/>
        <path class="cls-1" d="M10.38,11.65H2.45a.23.23,0,0,1-.22-.17,1.21,1.21,0,0,0-.82-.82.23.23,0,0,1-.17-.22v-8a.24.24,0,0,1,.17-.23,1.19,1.19,0,0,0,.82-.81.22.22,0,0,1,.22-.18h7.93a.23.23,0,0,1,.23.18,1.18,1.18,0,0,0,.81.81.23.23,0,0,1,.18.23v8a.23.23,0,0,1-.18.22,1.19,1.19,0,0,0-.81.82A.24.24,0,0,1,10.38,11.65Zm-7.76-.46h7.6a1.66,1.66,0,0,1,.92-.92V2.61a1.66,1.66,0,0,1-.92-.92H2.62a1.66,1.66,0,0,1-.92.92v7.66A1.66,1.66,0,0,1,2.62,11.19Z"/>
        <path class="cls-1" d="M5.62,7.54H3.24A.23.23,0,0,1,3,7.31V4.94a.23.23,0,0,1,.23-.23H5.62a.23.23,0,0,1,.23.23V7.31A.23.23,0,0,1,5.62,7.54ZM3.48,7.08H5.39V5.17H3.48Z"/>
        <path class="cls-1" d="M9.59,7.54H7.22A.23.23,0,0,1,7,7.31V4.94a.23.23,0,0,1,.23-.23H9.59a.23.23,0,0,1,.23.23V7.31A.23.23,0,0,1,9.59,7.54ZM7.45,7.08H9.36V5.17H7.45Z"/>
        <path class="cls-1" d="M8.68,4H6.3a.23.23,0,0,1-.23-.23.23.23,0,0,1,.23-.23H8.68a.23.23,0,0,1,.23.23A.23.23,0,0,1,8.68,4Z"/>
        <path class="cls-1" d="M5.08,4H4a.23.23,0,0,1-.24-.23A.24.24,0,0,1,4,3.53H5.08a.23.23,0,0,1,.23.23A.23.23,0,0,1,5.08,4Z"/>
      </g>
    </g>
  </g>
</svg>
